<svg xmlns="http://www.w3.org/2000/svg" xmlns:xlink="http://www.w3.org/1999/xlink" xml:space="preserve" version="1.1" style="shape-rendering:geometricPrecision;text-rendering:geometricPrecision;image-rendering:optimizeQuality;" viewBox="0 0 60000 75000" x="0px" y="0px" fill-rule="evenodd" clip-rule="evenodd"><defs><style type="text/css">
   
    .fil0 {fill:black;fill-rule:nonzero}
   
  </style></defs><g><path class="fil0" d="M36868.11 47553.76c115.53,115.53 115.53,302.85 0,418.38l-4372.17 4372.17 1728.39 1728.38 6464.37 -6464.38 -4535.89 -4535.89 -1883.02 1883.02 2598.32 2598.32zm-13736.22 -35107.52c-115.53,-115.53 -115.53,-302.85 0,-418.38l4372.17 -4372.17 -1728.39 -1728.38 -6464.37 6464.38 4535.89 4535.89 1883.02 -1883.02 -2598.32 -2598.32zm627.55 -209.19l2598.32 2598.32c115.53,115.53 115.53,302.84 0,418.37l-14772.65 14772.66 14664.01 14664.01c115.53,115.53 115.53,302.84 0,418.37l-2599.12 2599.12 4163.36 4162.6 1686.02 -1686.01 -2638.33 -2638.33c-115.52,-115.53 -115.52,-302.84 0,-418.37l2945.52 -2945.52c115.53,-115.53 302.84,-115.53 418.37,0l2797.62 2797.62c115.53,115.53 115.53,302.85 0,418.37l-2704.2 2704.21c-1.47,18.42 -4.66,36.73 -9.58,54.68l1768.79 1768.78 4162.99 -4162.98 -2598.32 -2598.32c-115.53,-115.53 -115.53,-302.84 0,-418.37l14772.65 -14772.66 -14664.01 -14664.01c-115.53,-115.53 -115.53,-302.84 0,-418.37l2599.12 -2599.12 -4163.36 -4162.6 -1686.02 1686.01 2638.33 2638.33c115.52,115.53 115.52,302.84 0,418.37l-2945.52 2945.52c-115.53,115.53 -302.84,115.53 -418.37,0l-2797.62 -2797.62c-115.53,-115.53 -115.53,-302.85 0,-418.37l2704.2 -2704.21c1.47,-18.42 4.66,-36.73 9.58,-54.68l-1768.79 -1768.78 -4162.99 4162.98zm-12592.7 18207.72l-4540.74 4540.73 7834.14 7834.14c115.53,115.53 115.53,302.85 0,418.38 -115.52,115.52 -302.84,115.52 -418.37,0l-13006.54 -13006.55c-115.53,-115.52 -115.53,-302.84 0,-418.37 20.95,-20.95 44.26,-38.08 69.08,-51.43 11.2,-17.35 24.37,-33.79 39.57,-48.99l4813.15 -4813.15c10.7,-16.08 23.12,-31.35 37.3,-45.53 14.19,-14.18 29.46,-26.61 45.53,-37.31l8110.56 -8110.55c115.53,-115.53 302.84,-115.53 418.37,0 115.53,115.52 115.53,302.84 0,418.37l-7942.79 7942.79 4540.74 4540.73 12262.07 -12262.08 -4745.07 -4745.08c-115.53,-115.53 -115.53,-302.84 0,-418.37l6885.19 -6885.19c115.53,-115.53 302.84,-115.53 418.37,0 10.9,10.9 20.76,22.44 29.61,34.49l1905.52 1905.52 1676.03 -1676.03 -1946.52 -1946.52c-115.53,-115.53 -115.53,-302.85 0,-418.38l2271.04 -2271.04c115.53,-115.53 302.85,-115.53 418.37,0l2157.02 2157.01c115.52,115.53 115.52,302.84 0,418.37l-2053.71 2053.71 1740.3 1739.99 1906.78 -1906.78c8.84,-12.06 18.71,-23.59 29.61,-34.49 115.52,-115.53 302.84,-115.53 418.37,0l6885.19 6885.19c115.52,115.53 115.52,302.84 0,418.37l-4745.08 4745.08 12153.43 12153.43 4540.74 -4540.73 -7834.14 -7834.14c-115.53,-115.53 -115.53,-302.85 0,-418.38 115.52,-115.52 302.84,-115.52 418.37,0l13006.54 13006.55c115.53,115.52 115.53,302.84 0,418.37 -20.95,20.95 -44.26,38.08 -69.08,51.43 -11.2,17.35 -24.37,33.79 -39.57,48.99l-4813.15 4813.15c-10.7,16.08 -23.12,31.35 -37.3,45.53 -14.19,14.18 -29.46,26.61 -45.53,37.31l-8110.56 8110.55c-115.53,115.53 -302.84,115.53 -418.37,0 -115.53,-115.52 -115.53,-302.84 0,-418.37l7942.79 -7942.79 -4540.74 -4540.73 -12262.07 12262.08 4745.07 4745.08c115.53,115.53 115.53,302.84 0,418.37l-6885.19 6885.19c-115.53,115.53 -302.84,115.53 -418.37,0 -10.9,-10.9 -20.76,-22.44 -29.61,-34.49l-1905.52 -1905.52 -1676.03 1676.03 1946.52 1946.52c115.53,115.53 115.53,302.85 0,418.38l-2271.04 2271.04c-115.53,115.53 -302.85,115.53 -418.37,0l-2157.02 -2157.01c-115.52,-115.53 -115.52,-302.84 0,-418.37l2053.71 -2053.71 -1740.3 -1739.99 -1906.78 1906.78c-8.84,12.06 -18.71,23.59 -29.61,34.49 -115.52,115.53 -302.84,115.53 -418.37,0l-6885.19 -6885.19c-115.52,-115.53 -115.52,-302.84 0,-418.37l4745.08 -4745.08 -12153.43 -12153.43zm-4959.11 4122.36l4540.73 -4540.73 -4540.73 -4540.73 -4540.73 4540.73 4540.73 4540.73zm43044.01 -4593.53l4540.73 4540.73 4540.73 -4540.73 -4540.73 -4540.73 -4540.73 4540.73zm-19119.5 -19689.82l-2527.15 2527.14 2379.25 2379.25 2527.15 -2527.14 -2379.25 -2379.25zm-1791.34 -2628.09l1741.45 1741.45 1685.97 -1685.97 -1741.6 -1741.29 -1685.82 1685.81zm1791.37 -6102.78l-1852.67 1852.67 1737.33 1737.34 209.19 -209.19c7.89,-7.89 16.11,-15.21 24.63,-22.02l1620.16 -1620.16 -1738.64 -1738.64zm2471.21 6159.85l4354.16 4353.36c6.59,5.54 13.02,11.39 19.22,17.59 115.53,115.53 115.53,302.85 0,418.37l-2598.32 2598.32 1883.02 1883.02 4535.89 -4535.89 -6464.38 -6464.37 -1729.59 1729.6zm-2735.52 42003.46l2527.15 -2527.14 -2379.25 -2379.25 -2527.15 2527.14 2379.25 2379.25zm1791.34 2628.09l-1741.45 -1741.45 -1685.97 1685.97 1741.6 1741.29 1685.82 -1685.81zm-1791.37 6102.78l1852.67 -1852.67 -1737.33 -1737.34 -209.19 209.19c-7.89,7.89 -16.11,15.21 -24.63,22.02l-1620.16 1620.16 1738.64 1738.64zm-2471.21 -6159.85l-4354.16 -4353.36c-6.59,-5.54 -13.02,-11.39 -19.22,-17.59 -115.53,-115.53 -115.53,-302.85 0,-418.37l2598.32 -2598.32 -1883.02 -1883.02 -4535.89 4535.89 6464.38 6464.37 1729.59 -1729.6z"/></g><text x="0" y="60015" fill="#000000" font-size="5px" font-weight="bold" font-family="'Helvetica Neue', Helvetica, Arial-Unicode, Arial, Sans-serif">Created by Olena Panasovska</text><text x="0" y="60020" fill="#000000" font-size="5px" font-weight="bold" font-family="'Helvetica Neue', Helvetica, Arial-Unicode, Arial, Sans-serif">from the Noun Project</text></svg>