<svg xmlns="http://www.w3.org/2000/svg" xmlns:xlink="http://www.w3.org/1999/xlink" version="1.1" x="0px" y="0px" viewBox="0 0 100 125" enable-background="new 0 0 100 100" xml:space="preserve"><path d="M49.242,59.938c-12.853,0-24.127-13.062-24.127-27.951c0-13.885,10.373-24.355,24.127-24.355  c13.754,0,24.125,10.471,24.125,24.355C73.367,46.876,62.094,59.938,49.242,59.938z M49.242,11.402  c-11.795,0-20.355,8.657-20.355,20.584c0,12.881,9.512,24.18,20.355,24.18c10.843,0,20.354-11.299,20.354-24.18  C69.596,20.059,61.036,11.402,49.242,11.402z"/><path d="M91.013,94.644H7.468v-2c0-15.323,7.917-29.666,20.663-37.431l1.476-0.898l1.104,1.329  c5.199,6.259,11.921,9.706,18.929,9.706c6.878,0,13.509-3.34,18.671-9.403l1.124-1.319l1.466,0.925  c12.594,7.942,20.113,21.809,20.113,37.092V94.644z M11.517,90.644h75.449c-0.593-12.53-6.748-23.818-16.794-30.779  c-5.758,6.131-12.989,9.485-20.532,9.485c-7.694,0-15.036-3.472-20.842-9.814C18.604,66.393,12.139,78.042,11.517,90.644z"/><text x="0" y="115" fill="#000000" font-size="5px" font-weight="bold" font-family="'Helvetica Neue', Helvetica, Arial-Unicode, Arial, Sans-serif">Created by Celina Chang</text><text x="0" y="120" fill="#000000" font-size="5px" font-weight="bold" font-family="'Helvetica Neue', Helvetica, Arial-Unicode, Arial, Sans-serif">from the Noun Project</text></svg>